<mxfile host="app.diagrams.net" agent="Mozilla/5.0 (X11; Ubuntu; Linux x86_64; rv:129.0) Gecko/20100101 Firefox/129.0" version="24.7.7">
  <diagram name="Page-1" id="eKSDGO8ceZv6IxxnFCSi">
    <mxGraphModel dx="1114" dy="630" grid="1" gridSize="10" guides="1" tooltips="1" connect="1" arrows="1" fold="1" page="1" pageScale="1" pageWidth="850" pageHeight="1100" math="0" shadow="0">
      <root>
        <mxCell id="0" />
        <mxCell id="1" parent="0" />
        <mxCell id="dBcO7g9rsMUKYgOd2zFx-1" value="User" style="shape=umlActor;verticalLabelPosition=bottom;verticalAlign=top;html=1;outlineConnect=0;" vertex="1" parent="1">
          <mxGeometry x="130" y="210" width="30" height="60" as="geometry" />
        </mxCell>
        <mxCell id="dBcO7g9rsMUKYgOd2zFx-3" value="Register" style="ellipse;whiteSpace=wrap;html=1;" vertex="1" parent="1">
          <mxGeometry x="270" y="110" width="130" height="50" as="geometry" />
        </mxCell>
        <mxCell id="dBcO7g9rsMUKYgOd2zFx-4" value="Login" style="ellipse;whiteSpace=wrap;html=1;" vertex="1" parent="1">
          <mxGeometry x="290" y="180" width="130" height="50" as="geometry" />
        </mxCell>
        <mxCell id="dBcO7g9rsMUKYgOd2zFx-5" value="Create recipe" style="ellipse;whiteSpace=wrap;html=1;" vertex="1" parent="1">
          <mxGeometry x="550" y="110" width="130" height="50" as="geometry" />
        </mxCell>
        <mxCell id="dBcO7g9rsMUKYgOd2zFx-6" value="with his recipe" style="ellipse;whiteSpace=wrap;html=1;" vertex="1" parent="1">
          <mxGeometry x="300" y="250" width="120" height="40" as="geometry" />
        </mxCell>
        <mxCell id="dBcO7g9rsMUKYgOd2zFx-7" value="Modify recipe" style="ellipse;whiteSpace=wrap;html=1;" vertex="1" parent="1">
          <mxGeometry x="550" y="190" width="130" height="50" as="geometry" />
        </mxCell>
        <mxCell id="dBcO7g9rsMUKYgOd2zFx-8" value="delete recipe" style="ellipse;whiteSpace=wrap;html=1;" vertex="1" parent="1">
          <mxGeometry x="570" y="260" width="130" height="50" as="geometry" />
        </mxCell>
        <mxCell id="dBcO7g9rsMUKYgOd2zFx-9" value="with others recipe" style="ellipse;whiteSpace=wrap;html=1;" vertex="1" parent="1">
          <mxGeometry x="300" y="310" width="120" height="40" as="geometry" />
        </mxCell>
        <mxCell id="dBcO7g9rsMUKYgOd2zFx-10" value="Save to favorite" style="ellipse;whiteSpace=wrap;html=1;" vertex="1" parent="1">
          <mxGeometry x="550" y="330" width="120" height="50" as="geometry" />
        </mxCell>
        <mxCell id="dBcO7g9rsMUKYgOd2zFx-11" value="Like recipe" style="ellipse;whiteSpace=wrap;html=1;" vertex="1" parent="1">
          <mxGeometry x="550" y="400" width="120" height="50" as="geometry" />
        </mxCell>
        <mxCell id="dBcO7g9rsMUKYgOd2zFx-15" value="" style="endArrow=classic;html=1;rounded=0;exitX=1;exitY=0.5;exitDx=0;exitDy=0;entryX=0;entryY=0.5;entryDx=0;entryDy=0;" edge="1" parent="1" source="dBcO7g9rsMUKYgOd2zFx-6" target="dBcO7g9rsMUKYgOd2zFx-5">
          <mxGeometry width="50" height="50" relative="1" as="geometry">
            <mxPoint x="440" y="270" as="sourcePoint" />
            <mxPoint x="490" y="220" as="targetPoint" />
          </mxGeometry>
        </mxCell>
        <mxCell id="dBcO7g9rsMUKYgOd2zFx-16" value="" style="endArrow=classic;html=1;rounded=0;exitX=1;exitY=0.5;exitDx=0;exitDy=0;entryX=0;entryY=0.5;entryDx=0;entryDy=0;" edge="1" parent="1" source="dBcO7g9rsMUKYgOd2zFx-6" target="dBcO7g9rsMUKYgOd2zFx-7">
          <mxGeometry width="50" height="50" relative="1" as="geometry">
            <mxPoint x="420" y="272.5" as="sourcePoint" />
            <mxPoint x="550" y="137.5" as="targetPoint" />
          </mxGeometry>
        </mxCell>
        <mxCell id="dBcO7g9rsMUKYgOd2zFx-17" value="" style="endArrow=classic;html=1;rounded=0;exitX=1;exitY=0.5;exitDx=0;exitDy=0;entryX=0;entryY=0.5;entryDx=0;entryDy=0;" edge="1" parent="1" source="dBcO7g9rsMUKYgOd2zFx-6" target="dBcO7g9rsMUKYgOd2zFx-8">
          <mxGeometry width="50" height="50" relative="1" as="geometry">
            <mxPoint x="425" y="270" as="sourcePoint" />
            <mxPoint x="555" y="212.5" as="targetPoint" />
          </mxGeometry>
        </mxCell>
        <mxCell id="dBcO7g9rsMUKYgOd2zFx-18" value="" style="endArrow=classic;html=1;rounded=0;exitX=1;exitY=0.5;exitDx=0;exitDy=0;entryX=0;entryY=0.5;entryDx=0;entryDy=0;" edge="1" parent="1" source="dBcO7g9rsMUKYgOd2zFx-9" target="dBcO7g9rsMUKYgOd2zFx-10">
          <mxGeometry width="50" height="50" relative="1" as="geometry">
            <mxPoint x="430" y="410" as="sourcePoint" />
            <mxPoint x="480" y="360" as="targetPoint" />
          </mxGeometry>
        </mxCell>
        <mxCell id="dBcO7g9rsMUKYgOd2zFx-19" value="" style="endArrow=classic;html=1;rounded=0;exitX=1;exitY=0.5;exitDx=0;exitDy=0;entryX=0;entryY=0.5;entryDx=0;entryDy=0;" edge="1" parent="1" source="dBcO7g9rsMUKYgOd2zFx-9" target="dBcO7g9rsMUKYgOd2zFx-11">
          <mxGeometry width="50" height="50" relative="1" as="geometry">
            <mxPoint x="430" y="340" as="sourcePoint" />
            <mxPoint x="560" y="365" as="targetPoint" />
          </mxGeometry>
        </mxCell>
        <mxCell id="dBcO7g9rsMUKYgOd2zFx-20" value="" style="endArrow=classic;html=1;rounded=0;exitX=1;exitY=0.5;exitDx=0;exitDy=0;entryX=0;entryY=0.5;entryDx=0;entryDy=0;" edge="1" parent="1" source="dBcO7g9rsMUKYgOd2zFx-9" target="dBcO7g9rsMUKYgOd2zFx-21">
          <mxGeometry width="50" height="50" relative="1" as="geometry">
            <mxPoint x="310" y="490" as="sourcePoint" />
            <mxPoint x="510" y="490" as="targetPoint" />
          </mxGeometry>
        </mxCell>
        <mxCell id="dBcO7g9rsMUKYgOd2zFx-21" value="Search for recipe" style="ellipse;whiteSpace=wrap;html=1;" vertex="1" parent="1">
          <mxGeometry x="550" y="470" width="120" height="50" as="geometry" />
        </mxCell>
        <mxCell id="dBcO7g9rsMUKYgOd2zFx-22" value="By name" style="ellipse;whiteSpace=wrap;html=1;" vertex="1" parent="1">
          <mxGeometry x="700" y="440" width="120" height="40" as="geometry" />
        </mxCell>
        <mxCell id="dBcO7g9rsMUKYgOd2zFx-23" value="By likes" style="ellipse;whiteSpace=wrap;html=1;" vertex="1" parent="1">
          <mxGeometry x="700" y="490" width="120" height="40" as="geometry" />
        </mxCell>
        <mxCell id="dBcO7g9rsMUKYgOd2zFx-24" value="By views" style="ellipse;whiteSpace=wrap;html=1;" vertex="1" parent="1">
          <mxGeometry x="700" y="550" width="120" height="40" as="geometry" />
        </mxCell>
        <mxCell id="dBcO7g9rsMUKYgOd2zFx-25" value="" style="endArrow=classic;html=1;rounded=0;exitX=1;exitY=0.5;exitDx=0;exitDy=0;entryX=0;entryY=0.5;entryDx=0;entryDy=0;" edge="1" parent="1" source="dBcO7g9rsMUKYgOd2zFx-21" target="dBcO7g9rsMUKYgOd2zFx-22">
          <mxGeometry width="50" height="50" relative="1" as="geometry">
            <mxPoint x="620" y="620" as="sourcePoint" />
            <mxPoint x="670" y="570" as="targetPoint" />
          </mxGeometry>
        </mxCell>
        <mxCell id="dBcO7g9rsMUKYgOd2zFx-26" value="" style="endArrow=classic;html=1;rounded=0;exitX=1;exitY=0.5;exitDx=0;exitDy=0;entryX=0;entryY=0.5;entryDx=0;entryDy=0;" edge="1" parent="1" source="dBcO7g9rsMUKYgOd2zFx-21" target="dBcO7g9rsMUKYgOd2zFx-23">
          <mxGeometry width="50" height="50" relative="1" as="geometry">
            <mxPoint x="680" y="505" as="sourcePoint" />
            <mxPoint x="710" y="470" as="targetPoint" />
          </mxGeometry>
        </mxCell>
        <mxCell id="dBcO7g9rsMUKYgOd2zFx-27" value="" style="endArrow=classic;html=1;rounded=0;exitX=1;exitY=0.5;exitDx=0;exitDy=0;entryX=0;entryY=0.5;entryDx=0;entryDy=0;" edge="1" parent="1" source="dBcO7g9rsMUKYgOd2zFx-21" target="dBcO7g9rsMUKYgOd2zFx-24">
          <mxGeometry width="50" height="50" relative="1" as="geometry">
            <mxPoint x="680" y="505" as="sourcePoint" />
            <mxPoint x="710" y="520" as="targetPoint" />
          </mxGeometry>
        </mxCell>
        <mxCell id="dBcO7g9rsMUKYgOd2zFx-28" value="Logout" style="ellipse;whiteSpace=wrap;html=1;" vertex="1" parent="1">
          <mxGeometry x="260" y="50" width="120" height="50" as="geometry" />
        </mxCell>
        <mxCell id="dBcO7g9rsMUKYgOd2zFx-29" value="&lt;div&gt;Talk with recipe author&lt;br&gt;&lt;/div&gt;" style="ellipse;whiteSpace=wrap;html=1;" vertex="1" parent="1">
          <mxGeometry x="290" y="380" width="120" height="45" as="geometry" />
        </mxCell>
        <mxCell id="dBcO7g9rsMUKYgOd2zFx-30" value="Follow other people" style="ellipse;whiteSpace=wrap;html=1;" vertex="1" parent="1">
          <mxGeometry x="270" y="450" width="120" height="50" as="geometry" />
        </mxCell>
        <mxCell id="dBcO7g9rsMUKYgOd2zFx-31" value="" style="endArrow=classic;html=1;rounded=0;exitX=0.5;exitY=0.5;exitDx=0;exitDy=0;exitPerimeter=0;entryX=0;entryY=0.5;entryDx=0;entryDy=0;" edge="1" parent="1" source="dBcO7g9rsMUKYgOd2zFx-1" target="dBcO7g9rsMUKYgOd2zFx-3">
          <mxGeometry width="50" height="50" relative="1" as="geometry">
            <mxPoint x="200" y="230" as="sourcePoint" />
            <mxPoint x="250" y="180" as="targetPoint" />
          </mxGeometry>
        </mxCell>
        <mxCell id="dBcO7g9rsMUKYgOd2zFx-32" value="" style="endArrow=classic;html=1;rounded=0;entryX=0;entryY=0.5;entryDx=0;entryDy=0;exitX=0.5;exitY=0.5;exitDx=0;exitDy=0;exitPerimeter=0;" edge="1" parent="1" source="dBcO7g9rsMUKYgOd2zFx-1" target="dBcO7g9rsMUKYgOd2zFx-28">
          <mxGeometry width="50" height="50" relative="1" as="geometry">
            <mxPoint x="155" y="250" as="sourcePoint" />
            <mxPoint x="280" y="145" as="targetPoint" />
          </mxGeometry>
        </mxCell>
        <mxCell id="dBcO7g9rsMUKYgOd2zFx-33" value="" style="endArrow=classic;html=1;rounded=0;entryX=0;entryY=0.5;entryDx=0;entryDy=0;exitX=0.5;exitY=0.5;exitDx=0;exitDy=0;exitPerimeter=0;" edge="1" parent="1" source="dBcO7g9rsMUKYgOd2zFx-1" target="dBcO7g9rsMUKYgOd2zFx-4">
          <mxGeometry width="50" height="50" relative="1" as="geometry">
            <mxPoint x="155" y="250" as="sourcePoint" />
            <mxPoint x="270" y="85" as="targetPoint" />
          </mxGeometry>
        </mxCell>
        <mxCell id="dBcO7g9rsMUKYgOd2zFx-34" value="" style="endArrow=classic;html=1;rounded=0;entryX=0;entryY=0.5;entryDx=0;entryDy=0;exitX=0.5;exitY=0.5;exitDx=0;exitDy=0;exitPerimeter=0;" edge="1" parent="1" source="dBcO7g9rsMUKYgOd2zFx-1" target="dBcO7g9rsMUKYgOd2zFx-6">
          <mxGeometry width="50" height="50" relative="1" as="geometry">
            <mxPoint x="155" y="250" as="sourcePoint" />
            <mxPoint x="300" y="215" as="targetPoint" />
          </mxGeometry>
        </mxCell>
        <mxCell id="dBcO7g9rsMUKYgOd2zFx-36" value="" style="endArrow=classic;html=1;rounded=0;entryX=0;entryY=0.5;entryDx=0;entryDy=0;exitX=0.5;exitY=0.5;exitDx=0;exitDy=0;exitPerimeter=0;" edge="1" parent="1" source="dBcO7g9rsMUKYgOd2zFx-1" target="dBcO7g9rsMUKYgOd2zFx-9">
          <mxGeometry width="50" height="50" relative="1" as="geometry">
            <mxPoint x="155" y="250" as="sourcePoint" />
            <mxPoint x="310" y="280" as="targetPoint" />
          </mxGeometry>
        </mxCell>
        <mxCell id="dBcO7g9rsMUKYgOd2zFx-37" value="" style="endArrow=classic;html=1;rounded=0;entryX=0;entryY=0.5;entryDx=0;entryDy=0;exitX=0.5;exitY=0.5;exitDx=0;exitDy=0;exitPerimeter=0;" edge="1" parent="1" source="dBcO7g9rsMUKYgOd2zFx-1" target="dBcO7g9rsMUKYgOd2zFx-29">
          <mxGeometry width="50" height="50" relative="1" as="geometry">
            <mxPoint x="155" y="250" as="sourcePoint" />
            <mxPoint x="310" y="340" as="targetPoint" />
          </mxGeometry>
        </mxCell>
        <mxCell id="dBcO7g9rsMUKYgOd2zFx-38" value="" style="endArrow=classic;html=1;rounded=0;entryX=0;entryY=0.5;entryDx=0;entryDy=0;exitX=0.5;exitY=0.5;exitDx=0;exitDy=0;exitPerimeter=0;" edge="1" parent="1" source="dBcO7g9rsMUKYgOd2zFx-1" target="dBcO7g9rsMUKYgOd2zFx-30">
          <mxGeometry width="50" height="50" relative="1" as="geometry">
            <mxPoint x="155" y="250" as="sourcePoint" />
            <mxPoint x="300" y="413" as="targetPoint" />
          </mxGeometry>
        </mxCell>
      </root>
    </mxGraphModel>
  </diagram>
</mxfile>
